<svg xmlns="http://www.w3.org/2000/svg" width="1500" height="1225" shape-rendering="geometricPrecision" text-rendering="geometricPrecision" image-rendering="optimizeQuality" fill-rule="evenodd" clip-rule="evenodd" viewBox="0 0 51171 41783"><defs><linearGradient id="prefix__a" gradientUnits="userSpaceOnUse" x1="30531" y1="10694" x2="24129" y2="9131"><stop offset="0" stop-color="#0082C6"/><stop offset=".349" stop-color="#38A9DE"/><stop offset="1" stop-color="#71D0F6"/></linearGradient></defs><path fill="#29C5F4" fill-rule="nonzero" d="M8082 27542v-1039H5258v-4661H4065v5700zM9533 27542v-4223H8417v4223h1116zm0-4730v-1038H8417v1038h1116zM12718 26014c-43 455-387 704-825 704-437 0-824-446-824-1365 0-918 387-1219 859-1219 420 0 738 258 798 696h1125c-69-996-816-1623-1915-1623-1184 0-1974 661-1974 2172s790 2275 1940 2275c1022 0 1820-661 1940-1640h-1124zM15224 25018c43-583 412-927 859-927 437 0 849 301 867 927h-1726zm2876 704c0-1674-687-2515-1983-2515s-2043 841-2043 2146c0 1528 704 2301 2112 2301 901 0 1596-490 1854-1357h-1151c-77 292-394 473-755 473-549 0-910-412-944-1048h2910zM22315 27542v-2927c0-919-593-1408-1399-1408-679 0-1108 258-1365 730v-618h-1065v4223h1116v-2421c0-643 283-970 867-970 532 0 721 181 721 833v2558h1125zM25482 26014c-43 455-386 704-824 704s-824-446-824-1365c0-918 386-1219 859-1219 420 0 738 258 798 696h1124c-68-996-815-1623-1914-1623-1184 0-1974 661-1974 2172s790 2275 1940 2275c1021 0 1820-661 1940-1640h-1125zM28075 27542v-4223h-1116v4223h1116zm0-4730v-1038h-1116v1038h1116zM31139 25937c-8 498-438 918-1013 918-352 0-540-154-540-472 0-360 206-541 841-661 412-77 609-137 721-249l-9 464zm1125 1605v-2670c0-1064-464-1665-1803-1665-1356 0-1837 610-1854 1485h1039c51-378 257-626 764-626 437 0 712 163 712 437 0 292-154 404-712 481-1125 155-1940 292-1940 1511 0 687 446 1159 1407 1159 567 0 1013-198 1279-490 9 129 35 275 69 378h1039zM35148 25860c0 523-206 824-652 824-455 0-644-309-644-842v-1734h2335v-789h-2335v-1142h-1099v3777c0 910 489 1700 1726 1700 1193 0 1708-799 1708-1691v-1202h-1039v1099zM40445 27542v-4223h-1108v2438c0 558-300 961-867 961-472 0-712-257-712-790v-2609h-1116v2781c0 927 592 1554 1433 1554 584 0 1022-223 1314-704v592h1056zM42050 27542v-2197c0-679 335-1022 1021-1022 103 0 206 9 309 26v-1142h-146c-455 0-884 52-1253 618v-506h-1047v4223h1116zM46041 25937c-8 498-437 918-1012 918-352 0-541-154-541-472 0-360 206-541 841-661 412-77 609-137 721-249l-9 464zm1125 1605v-2670c0-1064-464-1665-1803-1665-1356 0-1837 610-1854 1485h1039c51-378 257-626 764-626 438 0 712 163 712 437 0 292-154 404-712 481-1125 155-1940 292-1940 1511 0 687 446 1159 1408 1159 566 0 1012-198 1279-490 8 129 34 275 68 378h1039zM4884 32083c43-584 412-927 859-927 438 0 850 300 867 927H4884zm2876 704c0-1674-687-2515-1983-2515s-2043 841-2043 2146c0 1528 704 2300 2112 2300 901 0 1597-489 1854-1356H6550c-77 292-395 472-756 472-549 0-910-412-944-1047h2910zM11975 34607v-2928c0-918-592-1407-1399-1407-678 0-1108 257-1365 729v-618H8146v4224h1116v-2421c0-644 284-970 867-970 533 0 721 180 721 833v2558h1125zM18868 30589c-43-1090-850-1871-2292-1871-1390 0-2086 730-2086 1751 0 721 344 1133 953 1408 404 180 858 283 1562 438 713 154 885 386 885 721 0 506-404 807-1108 807-764 0-1253-361-1270-945h-1151c26 1279 1005 1906 2413 1906 1330 0 2274-558 2274-1811 0-807-394-1159-892-1382-421-189-1048-344-1691-498-636-155-885-361-885-721 0-429 352-670 1022-670 721 0 1073 284 1133 867h1133zM20508 34607v-4224h-1116v4224h1116zm0-4730v-1039h-1116v1039h1116zM24628 31662c-60-910-609-1390-1828-1390-1288 0-1777 540-1777 1253 0 378 137 704 532 953 300 189 695 309 1408 481 360 85 678 180 678 480 0 318-352 438-747 438-541 0-875-232-875-627h-1151c17 859 738 1468 2035 1468 1202 0 1845-523 1845-1399 0-549-249-841-695-1021-326-129-781-224-1262-361-455-129-687-232-687-481s241-352 661-352c507 0 730 146 790 558h1073zM27409 32924c0 524-206 824-652 824-455 0-644-309-644-841v-1734h2335v-790h-2335v-1141h-1099v3777c0 910 490 1699 1726 1699 1193 0 1708-798 1708-1691v-1202h-1039v1099zM29959 32083c43-584 412-927 858-927 438 0 850 300 867 927h-1725zm2876 704c0-1674-687-2515-1983-2515-1297 0-2043 841-2043 2146 0 1528 704 2300 2111 2300 902 0 1597-489 1855-1356h-1151c-77 292-395 472-755 472-550 0-910-412-944-1047h2910zM39264 34607v-2928c0-789-592-1407-1442-1407-532 0-910 206-1142 669-326-489-601-669-1176-669-558 0-953 171-1236 729v-618h-1047v4224h1116v-2567c0-549 232-824 678-824 489 0 670 172 670 850v2541h1116v-2524c0-515 300-901 712-901 395 0 661 360 661 867v2558h1090zM42252 33001c-9 498-438 919-1013 919-352 0-541-155-541-472 0-361 206-541 841-661 412-77 610-138 721-249l-8 463zm1124 1606v-2670c0-1064-463-1665-1803-1665-1356 0-1837 609-1854 1485h1039c51-378 257-627 764-627 438 0 712 163 712 438 0 292-154 403-712 481-1125 154-1940 291-1940 1510 0 687 446 1159 1408 1159 566 0 1013-197 1279-489 8 129 34 275 68 378h1039zM47479 31662c-60-910-609-1390-1828-1390-1288 0-1777 540-1777 1253 0 378 137 704 532 953 301 189 696 309 1408 481 361 85 678 180 678 480 0 318-352 438-747 438-540 0-875-232-875-627h-1151c18 859 739 1468 2035 1468 1202 0 1845-523 1845-1399 0-549-248-841-695-1021-326-129-781-224-1262-361-455-129-686-232-686-481s240-352 661-352c506 0 729 146 789 558h1073z"/><path fill="#0098DA" fill-rule="nonzero" d="M2086 40873c-558 0-953-524-953-1279 0-867 309-1305 962-1305 618 0 935 455 935 1374 0 712-412 1210-944 1210zm2000 798v-5768H2987v2094c-317-446-729-661-1253-661-1090 0-1734 902-1734 2181 0 1425 764 2266 1828 2266 516 0 910-198 1176-627l9 515h1073zM5631 39147c43-583 412-927 859-927 437 0 850 301 867 927H5631zm2876 704c0-1674-687-2515-1983-2515s-2043 841-2043 2146c0 1528 704 2301 2112 2301 901 0 1596-489 1854-1356H7297c-78 291-395 472-756 472-549 0-910-412-944-1048h2910zM12129 41671v-5700h-1193v5700zM16396 41671v-2927c0-918-592-1408-1399-1408-679 0-1108 258-1365 730v-618h-1065v4223h1116v-2421c0-643 284-970 867-970 533 0 721 181 721 833v2558h1125zM18190 41671v-3433h721v-790h-721c0-490 129-644 695-644v-901c-1202 0-1794 515-1794 1545h-626v790h626v3433h1099zM20988 40847c-678 0-1021-429-1021-1287 0-859 343-1280 1021-1280 679 0 1022 421 1022 1280 0 858-343 1287-1022 1287zm0 936c1314 0 2146-884 2146-2223 0-1348-824-2224-2146-2224-1339 0-2171 884-2171 2224 0 1313 807 2223 2171 2223zM24654 41671v-2197c0-678 335-1022 1021-1022 103 0 206 9 309 26v-1142h-146c-454 0-884 52-1253 618v-506h-1047v4223h1116zM32337 41671v-2927c0-790-593-1408-1442-1408-533 0-910 206-1142 670-326-490-601-670-1176-670-558 0-953 172-1236 730v-618h-1048v4223h1116v-2566c0-550 232-825 679-825 489 0 669 172 669 850v2541h1116v-2524c0-515 301-901 713-901 394 0 661 361 661 867v2558h1090zM35324 40066c-9 498-438 918-1013 918-352 0-541-154-541-472 0-360 206-540 842-661 412-77 609-137 721-249l-9 464zm1125 1605v-2669c0-1065-464-1666-1803-1666-1356 0-1837 610-1854 1485h1038c52-377 258-626 764-626 438 0 713 163 713 437 0 292-155 404-713 481-1124 155-1940 292-1940 1511 0 687 447 1159 1408 1159 567 0 1013-198 1279-489 9 128 35 274 69 377h1039zM39616 40143c-43 455-386 704-824 704s-824-446-824-1365c0-918 386-1219 858-1219 421 0 739 258 799 696h1124c-68-996-815-1623-1914-1623-1185 0-1974 661-1974 2172s789 2275 1940 2275c1021 0 1820-661 1940-1640h-1125zM42209 41671v-4223h-1116v4223h1116zm0-4730v-1038h-1116v1038h1116zM44792 40847c-678 0-1021-429-1021-1287 0-859 343-1280 1021-1280 679 0 1022 421 1022 1280 0 858-343 1287-1022 1287zm0 936c1314 0 2146-884 2146-2223 0-1348-824-2224-2146-2224-1339 0-2171 884-2171 2224 0 1313 807 2223 2171 2223zm1374-5674l-404-704-1776 1038 266 473 1914-807zM51171 41671v-2927c0-918-593-1408-1400-1408-678 0-1107 258-1365 730v-618h-1064v4223h1116v-2421c0-643 283-970 867-970 532 0 721 181 721 833v2558h1125z"/><path fill="url(#prefix__a)" d="M23136 9217l3836-3540c302-279 776-260 1054 42l3540 3836c278 301 260 775-42 1054l-3836 3540c-301 278-775 259-1054-42l-3540-3836c-278-302-259-776 42-1054z"/><path fill="#71D0F6" d="M23348 3948l1096-1011c301-278 775-259 1053 42l1012 1096c278 301 259 775-42 1054l-1096 1011c-302 278-776 259-1054-42l-1011-1096c-279-301-260-776 42-1054z"/><path fill="#ACE1F9" d="M20819 1208l1096-1011c301-278 775-259 1054 42l1011 1096c278 301 259 776-42 1054l-1096 1011c-302 278-776 259-1054-42l-1011-1096c-278-301-259-775 42-1054z"/><path fill="#71D0F6" d="M23863 16601l-1012-1096c-278-301-259-775 43-1054l1096-1011c301-278 775-259 1053 42l1012 1096c278 302 259 776-42 1054l-1096 1011c-302 278-776 259-1054-42z"/><path fill="#ACE1F9" d="M21123 19130l-1012-1096c-278-302-259-776 43-1054l1096-1011c301-279 775-260 1053 42l1012 1096c278 301 259 775-42 1053l-1096 1012c-302 278-776 259-1054-42z"/><path fill="#71D0F6" d="M20576 6443l1096-1012c302-278 776-259 1054 43l1011 1096c278 301 259 775-42 1053l-1096 1012c-301 278-775 259-1054-42l-1011-1097c-278-301-259-775 42-1053zM20397 11746l1096-1012c301-278 775-259 1053 42l1012 1096c278 302 259 776-43 1054l-1096 1012c-301 278-775 259-1053-43l-1012-1096c-278-301-259-775 43-1053z"/></svg>